<svg id="Layer_1" data-name="Layer 1" xmlns="http://www.w3.org/2000/svg" viewBox="0 0 1000 1000"><defs><style>.cls-1{fill:#010101;}.cls-2{fill:#fff;}</style></defs><rect class="cls-1" x="170.01" y="170.01" width="659.98" height="659.98"/><path class="cls-2" d="M199.84,204.33h19v35.9l33.79-35.9H276.4l-33.79,34.19,37.09,52.4H255.81l-26-38.94-11,11v27.85h-19Zm86.06,86.46h17.16V228.22H285.9Zm17.29-86.46H286v14.12h17.15Zm13.47,86.46h17.16V257.92c0-12.67,4-18,13.33-18,8.05,0,11.09,5.15,11.09,15.44v35.38H375.4V252.24c0-15.57-4.62-25.87-23-25.87a22.44,22.44,0,0,0-19.14,10.43h-.4v-8.71H316.66Zm115.76-32.08c0,9-4.89,17.29-14.65,17.29-10.56,0-13.86-9.76-13.86-18.74,0-9.37,4.22-17.82,13.86-17.82,11.08,0,14.65,9.11,14.65,19.27m16.37-30.49H432.42v8.32h-.27c-4.09-7.26-10.42-10-18.61-10-17.55,0-26.92,14.78-26.92,31,0,17.16,8.05,31.55,26.79,31.55,7.52,0,15-3.17,18.74-9.63h.27v8.18c.13,9-4.23,15.57-13.86,15.57-6.07,0-11.22-2.24-12.8-8.57H388.6c.79,14.25,15.31,20.06,27.58,20.06,28.78,0,32.47-17.42,32.47-27.72V228.22Zm10.69,42.24c.66,16.63,14.91,22,29.43,22,14.26,0,28.65-5.28,28.65-21.78,0-11.61-9.77-15.31-19.94-17.55-9.76-2.25-19.53-3.17-19.53-9.37,0-5.15,5.67-5.81,9.63-5.81,6.21,0,11.22,1.85,11.75,8.45h16.37C514.52,231,502,226.51,488.25,226.51c-13.46,0-27.32,4.09-27.32,20.06,0,10.95,9.9,14.52,19.93,16.76,12.41,2.64,19.54,4.49,19.54,9.64,0,6.07-6.34,8-11.22,8-6.74,0-13.07-3-13.2-10.56Zm89.89-61.11H532.21v18.74H521.78v11.48h10.43v37c0,12.54,9.24,14.92,19.8,14.92a59.85,59.85,0,0,0,10-.66V277.32a24.5,24.5,0,0,1-5.28.53c-5.81,0-7.26-1.45-7.26-7.26V239.7h12.67V228.22H549.5V209.35Zm51.21,70.22c-11.62,0-15.18-10-15.18-20.07s3.56-20.06,15.18-20.06,15.31,10,15.31,20.06-3.56,20.07-15.31,20.07m0-53.06c-19.67,0-32.34,13.06-32.34,33.13s12.67,33,32.34,33,32.47-13.07,32.47-33-12.67-33.13-32.47-33.13m40.52,64.28h17.16V257.92c0-12.67,4-18,13.33-18,8.06,0,11,5.15,11,15.44v35.38h17.16V252.24c0-15.57-4.62-25.87-22.84-25.87a22.44,22.44,0,0,0-19.14,10.43h-.39v-8.71H641v62.7ZM273.23,325.37h-19v53.85c0,12.81-4.35,18.75-17.95,18.75-15.44,0-17.82-9.37-17.82-18.75V325.37h-19v53.85c0,23.5,13.59,34.72,36.82,34.72s37-11.35,37-34.72ZM287.75,412h17.16V379.09c0-12.67,4-17.95,13.33-17.95,8.05,0,11,5,11,15.44V412h17.16V373.42c0-15.58-4.62-25.87-23-25.87A22.43,22.43,0,0,0,304.25,358h-.13v-8.71H287.75Zm72.33,0h17.16v-62.7H360.08Zm17.16-86.59H360.08v14.12h17.16Zm69.43,23.89h-17L416.45,392h-.27L403,349.26H384.9L406.42,412h19.13Zm21.26,24.55c.26-4.88,3.43-13.33,14.25-13.33,8.32,0,12.14,4.62,13.73,13.33Zm45.27,11c1.19-19.27-9.11-37.22-30.36-37.22-19,0-31.94,14.25-31.94,33.13,0,19.4,12.27,33,31.94,33,14.12,0,24.55-6.33,29.3-21.11H497c-1,3.82-6.6,8.18-13.59,8.18-9.64,0-14.92-5-15.44-15.84H513.2ZM523.36,412h17.16V383.71c0-10.95,4.36-20.06,17-20.06a28.54,28.54,0,0,1,6.2.66v-16a11.27,11.27,0,0,0-3.69-.66c-8.32,0-16.9,5.41-20.07,13.33h-.26V349.39H523.36Zm44.09-20.46c.66,16.63,14.92,22,29.43,22,14.26,0,28.65-5.28,28.65-21.78,0-11.61-9.77-15.31-19.8-17.55C596,372,586.19,371,586.19,364.84c0-5.15,5.68-5.81,9.51-5.81,6.2,0,11.22,1.85,11.74,8.45h16.37c-1.32-15.31-14-19.93-27.59-19.93s-27.32,4.09-27.32,20.06c0,10.95,9.9,14.52,19.93,16.76,12.41,2.64,19.54,4.49,19.54,9.64,0,6.07-6.34,8.05-11.22,8.05-6.73,0-13.07-3-13.2-10.56ZM636,412h17.15v-62.7H636Zm17.15-86.59H636v14.12h17.15Zm35.38,5.15H671.33v18.74H660.9v11.48h10.43v37c0,12.54,9.24,14.92,19.8,14.92a59.78,59.78,0,0,0,10-.66V398.5a25.05,25.05,0,0,1-5.28.52c-5.81,0-7.26-1.45-7.26-7.26v-31h12.54V349.26H688.62V330.52Zm82.63,18.74H753.3l-13.73,42.9h-.26l-14.13-42.9H706.7l22,58.74c2,5,0,11.22-5.94,11.75a84.75,84.75,0,0,1-10-.66v14.12a93.4,93.4,0,0,0,10.56.66c11.88,0,17.82-4.09,21.51-14.12ZM200.24,533H257v-7H208.55V446.54h-8.18V533Zm68.11-31.28c0-13.34,7.26-26.67,21.91-26.67s21.91,13.33,21.91,26.67-7.26,26.66-21.91,26.66-21.91-13.33-21.91-26.66m51.48,0c0-18-10.43-33.13-29.57-33.13s-29.57,15.17-29.57,33.13,10.43,33.13,29.57,33.13,29.57-15.18,29.57-33.13M331.05,533h7.65V496.57c.27-12.28,7.53-21.39,19.67-21.39,12.41,0,15.84,8.06,15.84,18.88v39.07h7.65V492.87c0-14.91-5.28-24.15-23-24.15-8.85,0-17.16,5.14-19.93,12.54h-.27V470.43h-7.65Zm90.54-4.62c-14.51,0-20.45-13.73-20.45-26.66s5.94-26.67,20.45-26.67c16.24,0,21.92,13.73,21.92,26.67s-5.68,26.66-21.92,26.66m29.57-81.84h-7.65v35.77h-.27c-3.3-9-12.41-13.72-21.65-13.72-19,0-28.11,15.44-28.11,33.13s9.11,33.13,28.11,33.13c9.11,0,19-5.55,22.31-13.73h.27V533h7Zm19,55.18c0-13.34,7.26-26.67,21.91-26.67S514,488.38,514,501.72s-7.26,26.66-21.91,26.66-21.91-13.33-21.91-26.66m51.48,0c0-18-10.43-33.13-29.57-33.13s-29.57,15.17-29.57,33.13,10.43,33.13,29.57,33.13,29.57-15.18,29.57-33.13M532.87,533h7.65V496.57c.27-12.28,7.53-21.39,19.67-21.39,12.41,0,15.84,8.06,15.84,18.88v39.07h7.66V492.87c0-14.91-5.28-24.15-23-24.15-8.85,0-17.16,5.14-19.93,12.54h-.27V470.43h-7.65Z"/></svg>