<svg id="Layer_1" data-name="Layer 1"
    xmlns="http://www.w3.org/2000/svg"
    xmlns:xlink="http://www.w3.org/1999/xlink" viewBox="0 0 1117.31 258.55">
    <defs>
        <style>
      .cls-1 {
        fill: url(#linear-gradient);
      }

      .cls-1, .cls-2, .cls-3 {
        stroke-width: 0px;
      }

      .cls-2 {
        fill: #000;
      }

      .cls-3 {
        fill: url(#linear-gradient-2);
      }
        </style>
        <linearGradient id="linear-gradient" x1="1126.26" y1="98.1" x2="1024.18" y2="39.16" gradientUnits="userSpaceOnUse">
            <stop offset=".6" stop-color="#0054bc"/>
            <stop offset=".8" stop-color="#0e387c"/>
        </linearGradient>
        <linearGradient id="linear-gradient-2" x1="997.4" y1="89.81" x2="1054.66" y2="-9.36" gradientUnits="userSpaceOnUse">
            <stop offset=".55" stop-color="#0054bc"/>
            <stop offset=".85" stop-color="#0dac14"/>
            <stop offset=".99" stop-color="#caef01"/>
        </linearGradient>
    </defs>
    <g>
        <path class="cls-2" d="M29.2,204.99h0c-2.67-1.59-5.72-2.39-9.07-2.39-3.12,0-5.95.71-8.4,2.12-2.03,1.17-3.67,2.63-4.9,4.36v-18.32c0-.21-.17-.38-.38-.38H.38c-.21,0-.38.17-.38.38v49.38c0,.21.17.38.38.38h6.07c.21,0,.38-.17.38-.38v-5.43c1.19,1.69,2.8,3.13,4.8,4.29,2.43,1.41,5.29,2.12,8.5,2.12s6.34-.83,9.04-2.46c2.7-1.63,4.84-3.95,6.38-6.89,1.53-2.93,2.31-6.32,2.31-10.05s-.78-7.15-2.31-10.02c-1.54-2.87-3.67-5.13-6.35-6.72ZM18.87,208.64c2.19,0,4.23.52,6.05,1.55,1.82,1.03,3.28,2.55,4.36,4.52,1.08,1.98,1.62,4.35,1.62,7.03s-.55,5.12-1.62,7.13c-1.07,2-2.54,3.54-4.36,4.59-1.82,1.05-3.86,1.58-6.05,1.58s-4.16-.53-5.98-1.58c-1.82-1.05-3.3-2.59-4.39-4.59-1.1-2-1.66-4.38-1.66-7.06s.56-4.99,1.66-6.99c1.09-2,2.57-3.54,4.39-4.59,1.82-1.05,3.84-1.58,5.98-1.58Z"/>
        <path class="cls-2" d="M75.66,203.2h-6.27c-.16,0-.3.1-.36.24l-10.99,28.71-11.12-28.71c-.06-.15-.2-.24-.35-.24h-6.74c-.13,0-.25.06-.32.17-.07.11-.08.24-.04.36l14.69,36.03-7.15,17.47c-.05.12-.03.25.04.36.07.11.19.17.32.17h6.27c.15,0,.29-.09.35-.24l22.02-53.79c.05-.12.03-.25-.04-.36-.07-.11-.19-.17-.32-.17Z"/>
        <path class="cls-2" d="M122.13,193.78c-.05-.15-.2-.25-.36-.25h-7.01c-.16,0-.3.1-.36.25l-16.82,46.25c-.04.12-.03.25.05.35.07.1.19.16.31.16h6.41c.16,0,.3-.1.36-.25l3.65-10.09h19.75l3.65,10.09c.06.15.2.25.36.25h6.41c.12,0,.24-.06.31-.16s.09-.23.05-.35l-16.75-46.25ZM126.1,224.49h-15.74l7.87-21.98,7.87,21.98Z"/>
        <path class="cls-2" d="M163.01,202.54c-2.54,0-4.9.53-7.01,1.57-1.75.86-3.21,2.04-4.36,3.49v-4.02c0-.21-.17-.38-.38-.38h-6.07c-.21,0-.38.17-.38.38v36.57c0,.21.17.38.38.38h6.07c.21,0,.38-.17.38-.38v-20.22c0-3.71.92-6.56,2.73-8.48,1.81-1.91,4.28-2.88,7.36-2.88s5.46.94,7.2,2.78c1.75,1.85,2.63,4.58,2.63,8.11v20.69c0,.21.17.38.38.38h6.01c.21,0,.38-.17.38-.38v-21.55c0-5.15-1.43-9.16-4.25-11.92-2.82-2.75-6.55-4.15-11.08-4.15Z"/>
        <path class="cls-2" d="M204.85,203.2h-9.16v-8.83c0-.21-.17-.38-.38-.38h-6.07c-.21,0-.38.17-.38.38v8.83h-4.36c-.21,0-.38.17-.38.38v5c0,.21.17.38.38.38h4.36v21.17c0,3.65.89,6.33,2.66,7.95,1.75,1.62,4.4,2.44,7.87,2.44h5.47c.21,0,.38-.17.38-.38v-5.14c0-.21-.17-.38-.38-.38h-4.47c-1.76,0-2.99-.33-3.67-.99-.68-.66-1.02-1.83-1.02-3.5v-21.17h9.16c.21,0,.38-.17.38-.38v-5c0-.21-.17-.38-.38-.38Z"/>
        <path class="cls-2" d="M239,204.35h0c-2.27-1.2-4.85-1.81-7.65-1.81s-5.12.53-7.27,1.57c-1.79.86-3.27,2.04-4.43,3.49v-16.83c0-.21-.17-.38-.38-.38h-6.07c-.21,0-.38.17-.38.38v49.38c0,.21.17.38.38.38h6.07c.21,0,.38-.17.38-.38v-20.22c0-3.71.92-6.56,2.73-8.48,1.81-1.91,4.28-2.88,7.36-2.88s5.46.94,7.2,2.78c1.75,1.85,2.63,4.58,2.63,8.11v20.69c0,.21.17.38.38.38h6.01c.21,0,.38-.17.38-.38v-21.55c0-3.43-.66-6.39-1.95-8.79-1.3-2.41-3.11-4.25-5.4-5.46Z"/>
        <path class="cls-2" d="M281.71,204.95c-2.85-1.56-6.07-2.35-9.59-2.35s-6.75.79-9.59,2.35c-2.85,1.56-5.14,3.83-6.79,6.75-1.65,2.91-2.49,6.31-2.49,10.1s.81,7.25,2.42,10.16c1.61,2.92,3.86,5.2,6.69,6.79,2.82,1.58,6.02,2.38,9.5,2.38s6.77-.8,9.66-2.38c2.9-1.58,5.22-3.87,6.92-6.78,1.69-2.92,2.55-6.34,2.55-10.17s-.84-7.24-2.49-10.13c-1.65-2.9-3.94-5.16-6.79-6.72ZM277.81,233.55c-1.85.99-3.85,1.49-5.96,1.49s-4.06-.49-5.82-1.45c-1.75-.96-3.17-2.45-4.22-4.42-1.06-1.98-1.59-4.46-1.59-7.36s.55-5.31,1.62-7.29c1.07-1.97,2.51-3.46,4.28-4.42,1.78-.97,3.77-1.46,5.93-1.46s4.09.49,5.89,1.46c1.79.96,3.27,2.45,4.39,4.42,1.12,1.98,1.69,4.43,1.69,7.29s-.58,5.3-1.72,7.28c-1.14,1.97-2.65,3.47-4.49,4.46Z"/>
        <rect class="cls-2" x="298.24" y="190.39" width="6.83" height="50.14" rx=".38" ry=".38"/>
        <path class="cls-2" d="M340.84,204.95c-2.85-1.56-6.07-2.35-9.59-2.35s-6.75.79-9.59,2.35c-2.85,1.56-5.14,3.83-6.79,6.75-1.65,2.91-2.49,6.31-2.49,10.1s.81,7.25,2.42,10.16c1.61,2.92,3.86,5.2,6.69,6.79,2.82,1.58,6.02,2.38,9.5,2.38s6.77-.8,9.66-2.38c2.9-1.58,5.22-3.87,6.92-6.78,1.69-2.92,2.55-6.34,2.55-10.17s-.84-7.24-2.49-10.13c-1.65-2.9-3.94-5.16-6.79-6.72ZM336.94,233.55c-1.85.99-3.85,1.49-5.96,1.49s-4.06-.49-5.82-1.45c-1.75-.96-3.17-2.45-4.22-4.42-1.06-1.98-1.59-4.46-1.59-7.36s.55-5.31,1.62-7.29c1.07-1.97,2.51-3.46,4.28-4.42,1.78-.97,3.77-1.46,5.93-1.46s4.09.49,5.89,1.46c1.79.96,3.27,2.45,4.39,4.42,1.12,1.98,1.69,4.43,1.69,7.29s-.58,5.3-1.72,7.28c-1.14,1.97-2.65,3.47-4.49,4.46Z"/>
        <path class="cls-2" d="M393.24,203.2h-6.14c-.21,0-.38.17-.38.38v5.35c-1.16-1.65-2.75-3.06-4.73-4.21-2.43-1.41-5.29-2.12-8.5-2.12s-6.34.8-9.04,2.39c-2.7,1.59-4.84,3.85-6.38,6.72-1.54,2.87-2.31,6.24-2.31,10.02s.78,7.12,2.31,10.05c1.54,2.94,3.68,5.26,6.38,6.89,2.69,1.63,5.74,2.46,9.04,2.46s6.06-.74,8.47-2.19c1.98-1.19,3.57-2.65,4.76-4.35v6.36c0,3.66-1.03,6.53-3.06,8.54-2.03,2.01-4.69,3.03-7.91,3.03-2.85,0-5.32-.66-7.33-1.97-2-1.3-3.34-3.04-3.98-5.16-.05-.16-.2-.27-.36-.27h-6.01c-.11,0-.22.05-.29.13-.07.08-.1.19-.09.3.59,4,2.55,7.21,5.83,9.53,3.25,2.3,7.37,3.47,12.23,3.47,3.56,0,6.74-.76,9.43-2.25,2.7-1.5,4.8-3.6,6.26-6.26,1.45-2.65,2.18-5.71,2.18-9.09v-37.37c0-.21-.17-.38-.38-.38ZM374.69,235.04c-2.19,0-4.22-.53-6.01-1.58-1.8-1.05-3.25-2.59-4.33-4.59-1.08-2-1.62-4.4-1.62-7.13s.55-5.05,1.62-7.03c1.07-1.97,2.53-3.5,4.33-4.52,1.8-1.03,3.83-1.55,6.02-1.55s4.23.53,6.05,1.58c1.82,1.05,3.29,2.58,4.36,4.56,1.08,1.98,1.62,4.35,1.62,7.03s-.55,5.06-1.62,7.06c-1.07,2-2.54,3.54-4.36,4.59-1.82,1.05-3.86,1.58-6.05,1.58Z"/>
        <path class="cls-2" d="M435.67,203.37c-.07-.11-.19-.17-.32-.17h-6.27c-.16,0-.3.1-.36.24l-10.99,28.71-11.12-28.71c-.06-.15-.2-.24-.35-.24h-6.74c-.13,0-.25.06-.32.17-.07.11-.08.24-.04.36l14.69,36.03-7.15,17.47c-.05.12-.03.25.04.36.07.11.19.17.32.17h6.27c.15,0,.29-.09.35-.24l22.02-53.79c.05-.12.03-.25-.04-.36Z"/>
    </g>
    <path class="cls-2" d="M86.23,99.05c-3.76-4.82-8.69-8.07-14.7-9.67,5.24-1.83,9.55-4.84,12.82-8.97,3.59-4.53,5.41-10.28,5.41-17.1,0-9.24-3.38-16.67-10.05-22.07-6.64-5.38-15.94-8.1-27.64-8.1H.45c-.25,0-.45.2-.45.45v114.66c0,.25.2.45.45.45h53.41c12.03,0,21.55-2.87,28.3-8.52,6.77-5.67,10.21-13.45,10.21-23.13,0-6.71-2.07-12.77-6.14-18h0ZM56.92,76.6c-2.35,1.94-5.8,2.92-10.25,2.92h-17.84v-23.11h17.84c4.44,0,7.89,1.01,10.24,3,2.33,1.97,3.52,4.88,3.52,8.64s-1.18,6.64-3.51,8.55ZM28.83,100.84h19.8c4.55,0,8.16,1.12,10.73,3.32,2.55,2.19,3.84,5.26,3.84,9.13s-1.24,6.86-3.68,8.88c-2.47,2.05-6.02,3.08-10.57,3.08h-20.13v-24.42Z"/>
    <rect class="cls-2" x="104.68" y="26.93" width="28.83" height="121.76" rx=".45" ry=".45"/>
    <path class="cls-2" d="M242.48,56.66h-27.93c-.25,0-.45.2-.45.45v11.4c-2.59-3.72-6.12-6.8-10.53-9.18-4.89-2.64-10.65-3.97-17.12-3.97-7.56,0-14.51,1.95-20.65,5.79-6.14,3.84-11.06,9.4-14.62,16.51-3.55,7.11-5.36,15.47-5.36,24.86s1.8,17.79,5.35,24.94c3.56,7.18,8.48,12.79,14.62,16.68,6.14,3.89,13.04,5.87,20.49,5.87,6.47,0,12.23-1.34,17.12-3.97,4.42-2.38,8.01-5.48,10.69-9.22v11.44c0,.25.2.45.45.45h27.93c.25,0,.45-.2.45-.45V57.11c0-.25-.2-.45-.45-.45ZM214.11,102.67c0,6.82-1.91,12.26-5.67,16.19-3.76,3.92-8.4,5.9-13.8,5.9s-10.04-2.01-13.8-5.98c-3.77-3.98-5.68-9.45-5.68-16.27s1.91-12.23,5.67-16.1c3.76-3.87,8.4-5.83,13.81-5.83s10.04,1.99,13.8,5.9c3.76,3.93,5.67,9.37,5.67,16.19Z"/>
    <path class="cls-2" d="M300.71,80.09c7.04,0,11.65,3.32,14.11,10.15.06.18.23.3.42.3h29.73c.14,0,.27-.06.35-.17.09-.11.12-.25.09-.38-2.41-10.94-7.55-19.55-15.27-25.57-7.72-6.02-17.46-9.08-28.94-9.08-8.96,0-17.03,1.94-23.98,5.77-6.96,3.84-12.46,9.39-16.35,16.51-3.88,7.11-5.85,15.54-5.85,25.04s1.97,17.93,5.85,25.04c3.89,7.12,9.39,12.68,16.35,16.51,6.95,3.83,15.01,5.77,23.98,5.77,11.37,0,21.08-3.11,28.86-9.24,7.78-6.13,12.94-14.68,15.35-25.41.03-.13,0-.27-.09-.38-.09-.11-.21-.17-.35-.17h-29.73c-.19,0-.36.12-.42.3-2.46,6.83-7.07,10.16-14.11,10.16-4.95,0-8.95-1.95-11.89-5.79-2.97-3.87-4.48-9.52-4.48-16.79s1.51-12.92,4.48-16.79c2.94-3.84,6.95-5.79,11.89-5.79Z"/>
    <path class="cls-2" d="M411.62,102.84l37.65-45.44c.11-.13.14-.32.06-.48-.07-.16-.23-.26-.41-.26h-34.46c-.14,0-.28.07-.36.18l-26.79,35.99V27.38c0-.25-.2-.45-.45-.45h-27.93c-.25,0-.45.2-.45.45v120.86c0,.25.2.45.45.45h27.93c.25,0,.45-.2.45-.45v-36.83l26.95,37.1c.08.12.22.19.36.19h34.63c.17,0,.33-.1.41-.26s.05-.35-.06-.48l-37.98-45.12Z"/>
    <path class="cls-2" d="M537.36,61.13c-6.14-3.84-13.09-5.79-20.65-5.79-6.36,0-12.09,1.34-17.03,3.97h0c-4.45,2.37-8.01,5.46-10.61,9.18V27.38c0-.25-.2-.45-.45-.45h-27.93c-.25,0-.45.2-.45.45v120.86c0,.25.2.45.45.45h27.93c.25,0,.45-.2.45-.45v-11.28c2.68,3.74,6.24,6.81,10.61,9.14,4.84,2.58,10.57,3.89,17.03,3.89,7.56,0,14.51-1.97,20.66-5.87,6.14-3.89,11.06-9.5,14.62-16.68,3.55-7.16,5.36-15.56,5.36-24.94s-1.8-17.75-5.36-24.86c-3.56-7.12-8.48-12.67-14.62-16.51ZM528.02,102.51c0,6.82-1.94,12.29-5.75,16.27-3.81,3.97-8.48,5.99-13.88,5.99s-10.05-1.99-13.8-5.91c-3.76-3.92-5.67-9.37-5.67-16.18s1.91-12.26,5.67-16.19c3.76-3.92,8.4-5.9,13.8-5.9s10.21,1.96,13.97,5.83c3.76,3.87,5.67,9.29,5.67,16.1Z"/>
    <path class="cls-2" d="M638.87,61.12c-7.22-3.83-15.42-5.77-24.38-5.77s-17.16,1.94-24.38,5.77c-7.23,3.84-13,9.42-17.16,16.59-4.16,7.17-6.27,15.57-6.27,24.97s2.08,17.94,6.19,25.05c4.11,7.12,9.83,12.67,17,16.51,7.16,3.83,15.34,5.77,24.3,5.77s17.19-1.94,24.46-5.77c7.28-3.83,13.11-9.41,17.33-16.58,4.21-7.17,6.35-15.57,6.35-24.97s-2.11-17.8-6.27-24.97c-4.16-7.17-9.94-12.75-17.16-16.59ZM627.48,119.19c-3.65,3.81-8.13,5.74-13.31,5.74s-9.54-1.93-12.98-5.73c-3.45-3.82-5.19-9.37-5.19-16.52s1.77-12.84,5.27-16.6c3.49-3.75,7.94-5.66,13.23-5.66s9.6,1.93,13.14,5.74c3.55,3.82,5.35,9.37,5.35,16.52s-1.85,12.7-5.51,16.51Z"/>
    <path class="cls-2" d="M768.29,56.66h-27.93c-.25,0-.45.2-.45.45v11.4c-2.59-3.72-6.12-6.8-10.53-9.18-4.89-2.64-10.65-3.97-17.12-3.97-7.56,0-14.51,1.95-20.65,5.79-6.14,3.84-11.06,9.4-14.62,16.51-3.55,7.11-5.36,15.47-5.36,24.86s1.8,17.79,5.35,24.94c3.56,7.18,8.48,12.79,14.62,16.68,6.14,3.89,13.04,5.87,20.49,5.87,6.47,0,12.23-1.34,17.12-3.97,4.42-2.38,8.01-5.48,10.69-9.22v11.44c0,.25.2.45.45.45h27.93c.25,0,.45-.2.45-.45V57.11c0-.25-.2-.45-.45-.45ZM739.92,102.67c0,6.82-1.91,12.26-5.67,16.19-3.76,3.92-8.4,5.9-13.8,5.9s-10.04-2.01-13.8-5.98c-3.77-3.98-5.68-9.45-5.68-16.27s1.91-12.23,5.67-16.1c3.76-3.87,8.4-5.83,13.81-5.83s10.04,1.99,13.8,5.9c3.76,3.93,5.67,9.37,5.67,16.19Z"/>
    <path class="cls-2" d="M844.97,55.68c-6.04,0-11.61,1.48-16.56,4.39-4.53,2.67-8.42,6.29-11.57,10.76v-13.72c0-.25-.2-.45-.45-.45h-27.93c-.25,0-.45.2-.45.45v91.14c0,.25.2.45.45.45h27.93c.25,0,.45-.2.45-.45v-42.3c0-7.34,1.71-12.53,5.07-15.42,3.38-2.91,8.56-4.38,15.39-4.38h7.68c.25,0,.45-.2.45-.45v-29.56c0-.25-.2-.45-.45-.45Z"/>
    <path class="cls-2" d="M949.83,26.93h-27.93c-.25,0-.45.2-.45.45v40.88c-2.79-3.75-6.49-6.81-11.03-9.11-5-2.52-10.59-3.8-16.62-3.8-7.56,0-14.51,1.95-20.65,5.79-6.14,3.84-11.06,9.4-14.62,16.51-3.55,7.11-5.36,15.47-5.36,24.86s1.8,17.79,5.36,24.94c3.56,7.18,8.48,12.79,14.62,16.68,6.14,3.89,13.09,5.87,20.66,5.87,6.47,0,12.23-1.34,17.12-3.97,4.4-2.38,7.94-5.5,10.53-9.31v11.53c0,.25.2.45.45.45h27.93c.25,0,.45-.2.45-.45V27.38c0-.25-.2-.45-.45-.45ZM921.45,102.67c0,6.82-1.91,12.26-5.67,16.19-3.76,3.92-8.4,5.9-13.8,5.9s-10.04-2.01-13.8-5.98c-3.77-3.98-5.67-9.45-5.67-16.27s1.91-12.23,5.67-16.1c3.76-3.87,8.4-5.83,13.81-5.83s10.04,1.99,13.8,5.9c3.76,3.93,5.67,9.37,5.67,16.19Z"/>
    <g>
        <path class="cls-2" d="M959.07,138.07c0-5.56,4.77-10.29,10.27-10.29,6.07,0,10.57,4.79,10.57,10.46,0,6.05-4.93,10.46-10.4,10.46-5.96,0-10.43-4.79-10.43-10.62ZM977.64,138.37c0-4.85-3.65-8.5-8.06-8.5s-8.25,3.54-8.25,8.36,3.73,8.36,8.17,8.36,8.14-3.78,8.14-8.22Z"/>
        <path class="cls-2" d="M973.62,141.39c-.07-1.88-.57-2.62-1.56-3.02,1.09-.49,1.71-1.34,1.71-2.55,0-1.9-1.56-2.97-3.81-2.97h-4.5v10.53h2.62v-4.06h1.11c1.19,0,1.73.54,1.83,1.68l.1,1.29c.05.52.15.91.22,1.09h2.55c-.17-.4-.25-1.06-.27-2ZM969.44,137.63h-1.36v-2.97h1.51c.99,0,1.56.45,1.56,1.36,0,1.16-.64,1.61-1.71,1.61Z"/>
    </g>
    <g>
        <polygon class="cls-1" points="1070.86 0 1117.31 80.46 1074.1 80.46 1049.25 37.42 1024.41 80.46 981.2 80.46 1027.65 0 1070.86 0"/>
        <polygon class="cls-3" points="1070.86 0 1024.41 80.46 981.2 80.46 1027.65 0 1070.86 0"/>
    </g>
</svg>