<svg xmlns="http://www.w3.org/2000/svg" viewBox="0 0 1113.53 286.75" width="1113.53" height="286.75">
    <defs>
        <style>.a{fill:#ff812c;}</style>
    </defs>
    <path d="M129.09,203.52h9.26l4.56-6.15,0-73.69-4.57-6.14h-9.27V111.4h44.14c34.19,0,49.27,19.37,49.27,48S199,209.66,173,209.66H129.09Zm45.94-2.3c19.24,0,25.61-12.18,25.61-37,0-26-10.24-46.72-28.1-46.72a23.12,23.12,0,0,0-7.33,1.11,21.74,21.74,0,0,0-2.49,1.1l0,77.62C165.59,200.3,171.3,201.22,175,201.22Z" transform="translate(-129.09 -109.66)"/>
    <path d="M289.34,166.71l-5,24.53h-53.5l0-6.26s8-8.43,8.15-8.62c16.66-17.57,29.75-31.51,29.75-46,0-9-3.52-14.56-9.65-14.56s-9.93,6.21-9.93,15.53l0,4.72H233a16.84,16.84,0,0,1-.54-4.49c0-14.52,14.18-21.91,27.52-21.91,13.16,0,26.44,6.3,26.44,21.35a24.41,24.41,0,0,1-2.69,10.73,47.39,47.39,0,0,1-6.8,10c-3.39,4-10.75,10.17-17.26,15.32-5.2,4.13-9.87,7.61-11.52,8.85h31.57l8.42-9.17Z" transform="translate(-129.09 -109.66)"/>
    <polygon points="248.62 69.3 242.36 100 169.29 100 169.29 93.84 178.53 93.84 183.14 87.7 183.14 14.02 178.53 7.88 169.29 7.88 169.29 1.72 219.26 1.72 219.26 7.88 207.22 7.88 202.91 14.02 202.91 90.82 226.13 90.82 246.33 69.3 248.62 69.3"/>
    <path class="a" d="M286.09,200.46v3.83l-5.37,5.37H227.83v-3.83l5.37-5.37Z" transform="translate(-129.09 -109.66)"/>
    <path d="M206.35,332.46c10.07-5.31,15.37-14.78,15.37-27.59,0-20.83-15.15-33.77-39.54-33.77H132.9V394.27H183c25.38,0,40.53-12.69,40.53-33.93C223.54,346.76,217.61,337.18,206.35,332.46Zm-49.84,10.46h25.67c11.12,0,17.25,5.25,17.25,14.77,0,10.1-6,15.44-17.25,15.44H156.51Zm24.35-20.31H156.51V292.24h23.85c7.87,0,17.25,2.56,17.25,14.77C197.61,317.07,191.66,322.61,180.86,322.61Z" transform="translate(-129.09 -109.66)"/>
    <path d="M331.83,310c0-24.34-16.69-38.88-44.66-38.88h-47.3V394.27h23.62V349.2h23.87l20.47,45.07h25.86l-23.22-50.13C324.45,338,331.83,326.19,331.83,310Zm-68.34-17.57h23.68c12.75,0,20.06,6.4,20.06,17.57,0,11.49-7.31,18.08-20.06,18.08H263.49Z" transform="translate(-129.09 -109.66)"/>
    <rect x="220.9" y="161.44" width="23.62" height="123.17"/>
    <path d="M447.55,345.07H484c-.32,18.1-12.39,28.88-32.43,28.88C429.05,374,415,358.49,415,333.59c0-26,13.94-42.17,36.39-42.17,15.27,0,26,7.24,29.35,19.88l.24.92h24.67l-.2-1.42c-3.51-24.93-25-41.68-53.56-41.68-18,0-33.48,6.23-44.65,18-11,11.63-16.85,27.52-16.85,46s5.66,34.24,16.37,45.65,25.28,17.33,42.32,17.33c14.74,0,28.08-5.2,35.71-13.76L486,394.27h20.21V323.93H447.55Z" transform="translate(-129.09 -109.66)"/>
    <polygon points="471.5 211.29 420.5 211.29 420.5 161.44 396.88 161.44 396.88 284.6 420.5 284.6 420.5 233.43 471.5 233.43 471.5 284.6 495.12 284.6 495.12 161.44 471.5 161.44 471.5 211.29"/>
    <polygon points="508.31 183.4 543.64 183.4 543.64 284.6 567.26 284.6 567.26 183.4 602.59 183.4 602.59 161.44 508.31 161.44 508.31 183.4"/>
    <path d="M794.25,324l-19-4.13c-9.62-2.21-13.73-6.53-13.73-14.47,0-9.31,7.75-15.1,20.22-15.1,11.34,0,18.11,5.59,18.57,15.33l.06,1.18H824l0-1.28C823.28,283,807.24,269,782.1,269c-26,0-44.16,15.25-44.16,37.07,0,18.89,11.13,31.3,32.17,35.88l19.16,4.3c9.15,2,13.05,6.11,13.05,13.81,0,9.21-8.31,14.93-21.7,14.93-12.82,0-20.56-5.65-20.72-15.12V358.6H736.26l0,1.27c.51,22.2,17.91,36.54,44.33,36.54,27.53,0,45.32-15,45.32-38.22C825.94,339.76,815.57,328.56,794.25,324Z" transform="translate(-129.09 -109.66)"/>
    <path d="M891.06,271.1H842.11V394.27h23.62V352.66h25.33c24.64,0,41.2-16.42,41.2-40.86S915.7,271.1,891.06,271.1Zm-25.33,21.31h21.2c13.36,0,20.72,6.83,20.72,19.22,0,12.72-7.48,19.73-21,19.73H865.73Z" transform="translate(-129.09 -109.66)"/>
    <path d="M1124.79,352.39c-3.86,13-16,21.07-31.67,21.07-21.3,0-35.07-16-35.07-40.86,0-25.1,13.44-40.69,35.07-40.69,15.47,0,27.06,8,31,21.4l.27.89h24.67l-.23-1.44c-4.22-26.51-25.89-43.64-55.21-43.64-36,0-60.18,25.58-60.18,63.65,0,38.56,23.23,63.48,59.19,63.48,29.1,0,51.82-17.4,56.53-43.29l.26-1.46h-24.37Z" transform="translate(-129.09 -109.66)"/>
    <polygon points="1113.53 183.4 1113.53 161.44 1036.09 161.44 1036.09 284.6 1113.53 284.6 1113.53 262.63 1059.71 262.63 1059.71 233.09 1107.91 233.09 1107.91 211.95 1059.71 211.95 1059.71 183.4 1113.53 183.4"/>
    <polygon points="829.01 257.54 804.84 257.54 795.07 284.6 819.57 284.6 829.01 257.54"/>
    <polygon points="882.07 284.6 906.9 284.6 897.13 257.54 872.62 257.54 882.07 284.6"/>
    <path class="a" d="M1003.18,348a48.26,48.26,0,0,0,12.37-10.91l-23.85-66H968.44l-23.47,65a50.36,50.36,0,0,0,14.16,13.64c-4.18-9.51-1-22.37,4.25-31.12,1.27,5.77,3.83,8.39,6.8,10.37-2-2.63-3.57-6.61-3-12.3.94-9.28,10.18-16.56,18.85-19.56-3.37,8,1.13,11.86,3.06,17.74a46.63,46.63,0,0,1,10.77-5.4c-6.24,14.87,8,18.78,4.56,34.62A22.44,22.44,0,0,1,1003.18,348Z" transform="translate(-129.09 -109.66)"/>
</svg>